<svg xmlns="http://www.w3.org/2000/svg" xmlns:xlink="http://www.w3.org/1999/xlink" version="1.1" x="0px" y="0px" width="345.6px" height="109.6px" viewBox="0 0 345.6 109.6" enable-background="new 0 0 345.6 109.6" xml:space="preserve"><style>.style0{fill:	#336699;}.style1{fill:	#030303;}</style><g><g><g><path d="M201.6 82.4c-1.5 0-3.4-0.2-4.5-0.4c-0.4-5.7-0.7-29.2-0.6-49.7c2.4-0.8 4.1-1 6.2-1 c8.7 0 13.6 10.1 13.6 22.7C216.2 70.2 210.2 82.4 201.6 82.4z M210.8 24.7c-5.5 0-9.8 1.5-14.4 3.7c0-12.9 0.2-24.1 0.5-28.4 l-26.5 5.1v2.4l2.6 0.3c3.7 0.5 5.1 2.7 5.6 7.6c0.8 9.5 0.7 60.2 0 68.3c7.1 1.6 14.9 2.8 22.6 2.8c21 0 33.7-13 33.7-33.6 C234.8 36.5 224.6 24.7 210.8 24.7" class="style0"/><path d="M70.4 1.9H0.7v3.4l3.7 0.5c5.3 0.8 7.4 4.1 8 11.6c1.2 14.4 1 40.1 0 52.5c-0.6 7.5-2.7 10.8-8 11.6 l-3.7 0.5v3.4h44.8v-3.4l-4.7-0.5c-5.3-0.8-7.4-4.1-8-11.6C32.4 64.7 32.1 56 32 45.9l9.2 0.3c6.2 0.2 8.7 4.8 10.2 11.5h3.5 V29.6h-3.5c-1.5 6.8-4.1 11.3-10.2 11.5L32 41.4c-0.1-13.3 0.2-26.1 0.8-33.8h13.8c10.7 0 16.5 6.8 20.1 18.9l4.1-1.1L70.4 1.9z" class="style0"/><path d="M92 27.9c-8.8 0-11.2 11.8-11.2 27.5c0 15.2 3.9 27.5 12 27.5c8.8 0 11.2-11.8 11.2-27.5 C104 40.1 100.1 27.9 92 27.9z M93.1 24c19.8 0 29.7 13.4 29.7 31.1c0 17.3-11.1 31.5-30.9 31.5c-19.8 0-29.7-13.4-29.7-31.1 C62.1 38.2 73.2 24 93.1 24" class="style0"/><path d="M258.2 48.3l18.6-0.4c0.1-8.2-1.2-20-7.9-20C262.1 27.9 258.3 39.1 258.2 48.3z M239.7 55.9 c0-16.4 10.3-31.8 30.8-31.8c16.6 0 24.5 12.3 24.6 28.4H258c-0.4 14.6 7 25.4 21.2 25.4c6.2 0 9.6-1.5 13.4-4.4l1.7 2.1 c-4.1 5.7-12.7 11.1-24.1 11.1C252.3 86.6 239.7 74 239.7 55.9" class="style0"/><path d="M342 27.2c-4.4-2-11-3.2-17.9-3.2c-14.9 0-23.9 8.7-23.9 18.9c0 10.5 6.8 14.6 16.2 18 c10.1 3.6 12.8 6.4 12.8 11.1c0 4.8-3.5 9.3-9.9 9.3c-7.5 0-13.1-4.4-17.5-16.5l-3 0.8l0.5 17.3c4.9 2 13.4 3.7 20.9 3.7 c15.8 0 25.4-7.7 25.4-20.2c0-8.4-4.1-13-14.4-17c-11.2-4.3-15.1-7.1-15.1-12.2c0-5.2 3.5-8.8 8.2-8.8c7.2 0 12.1 4.5 15.3 14.9 l3-0.8L342 27.2z" class="style0"/><path d="M174.4 25.7c-6.7-4-18.9-2.1-25 12.1l0.3-13.8l-26.4 5.1v2.4l2.6 0.3c3.7 0.5 5.1 2.7 5.6 7.6 c0.8 9.4 0.7 26.3 0 34.5c-0.4 4.9-1.9 7.1-5.6 7.6l-2.6 0.3v3.4H160v-3.4l-4.8-0.3c-3.7-0.5-5.1-2.7-5.6-7.6 c-0.7-7.5-0.8-22.3-0.2-32c1.8-2.9 10.4-5.3 18.4 0.1L174.4 25.7z" class="style0"/><rect y="93.3" width="239" height="16.2" class="style1"/><rect x="246.2" y="93.3" width="16.2" height="16.2" class="style0"/><path d="M282 98.5c-0.8-1.5-2-2.5-4-2.5c-2.8 0-4.8 1.8-4.8 5.4c0 3.8 2.3 5.3 4.8 5.3c2.1 0 3.2-1.2 4-2.8l5 0.6 c-1.2 3-4.3 5.1-9 5.1c-6.1 0-9.7-2.9-9.7-8.2s3.8-8.2 9.7-8.2c5.2 0 7.9 2.3 8.8 4.9L282 98.5z" class="style0"/><path d="M310.3 101.4c0-5.3-3.8-8.2-10.3-8.2c-6.5 0-10.3 3-10.3 8.2c0 4.8 3.3 8.2 10.3 8.2 C306.7 109.6 310.3 106.3 310.3 101.4L310.3 101.4z M300 106.8c-3 0-5.4-1.8-5.4-5.4c0-3.8 2.7-5.4 5.4-5.4 c2.7 0 5.4 1.6 5.4 5.4C305.4 104.8 302.9 106.8 300 106.8L300 106.8" class="style0"/><path d="M340.7 109.2v-8.7c0-1.4-0.2-2.5-0.8-3.2c-0.5-0.6-1.2-0.9-2.3-0.9c-0.8 0-1.8 0.2-2.9 0.7 c-1 0.5-2 1.1-3 2v9.9H327v-8.8c0-1.4-0.2-2.4-0.8-3.1c-0.5-0.5-1.2-0.8-2.1-0.8c-0.9 0-1.8 0.2-3 0.7c-1 0.5-2 1.2-3 2v10h-4.8 V93.5h4.8l0 2.4h0.1c1.2-0.9 2.4-1.5 3.6-2c1.1-0.4 2.6-0.7 3.9-0.7c1.7 0 3 0.3 3.9 0.9c0.8 0.5 1.3 1.2 1.8 2h0.1 c1.4-0.9 2.5-1.6 3.8-2.1c1.3-0.5 2.6-0.8 4.2-0.8c1.9 0 3.5 0.5 4.5 1.5c1.1 1.1 1.6 2.7 1.6 5.1v9.4H340.7z" class="style0"/></g></g></g><g></g><g></g><g></g><g></g><g></g><g></g><g></g><g></g><g></g><g></g><g></g><g></g><g></g><g></g><g></g></svg>